<svg width="72" height="57" viewBox="0 0 72 57" fill="none" xmlns="http://www.w3.org/2000/svg">
<path d="M-0.00399968 57V18.768H12.848V32.448L10.436 30.72C10.772 28.824 11.3 27.096 12.02 25.536C12.74 23.952 13.664 22.608 14.792 21.504C15.944 20.376 17.276 19.512 18.788 18.912C20.324 18.312 22.052 18.012 23.972 18.012C25.532 18.012 26.72 18.12 27.536 18.336C28.376 18.552 28.904 18.72 29.12 18.84L27.212 30.18C26.996 30.06 26.516 29.88 25.772 29.64C25.028 29.376 24.104 29.244 23 29.244C21.104 29.244 19.496 29.556 18.176 30.18C16.88 30.78 15.836 31.596 15.044 32.628C14.276 33.66 13.712 34.812 13.352 36.084C13.016 37.356 12.848 38.628 12.848 39.9V57H-0.00399968Z" fill="white"/>
<path d="M32.4491 57V0.731997H44.6171V32.196L42.2771 30.936L55.5971 18.768H71.2211L52.0691 35.976L54.6971 31.332L70.7171 57H57.2891L46.2731 38.028L49.6571 38.1L43.3571 43.86L44.6171 38.424V57H32.4491Z" fill="#EF6D58"/>
</svg>
